<svg xmlns="http://www.w3.org/2000/svg" width="900" height="463" viewBox="0 0 900 463" role="img" aria-labelledby="title desc">
<title id="title">Variação em 7 dias: Momentum de Bundesliga no EA FC em 20/06 — PC</title>
<desc id="desc">Gráfico gerado a partir da tabela publicada neste artigo.</desc>
<rect width="100%" height="100%" rx="20" fill="#0f172a"/>
<text x="28" y="42" fill="#f8fafc" font-family="system-ui,sans-serif" font-size="23" font-weight="700">Variação em 7 dias</text>
<text x="28" y="70" fill="#94a3b8" font-family="system-ui,sans-serif" font-size="15">Dados do recorte publicado no artigo</text>
<text x="28" y="117" fill="#e2e8f0" font-family="system-ui,sans-serif" font-size="16">Matthias Ginter</text>
<rect x="285" y="95" width="480" height="28" rx="7" fill="#22c55e"/>
<text x="775" y="116" fill="#f8fafc" font-family="system-ui,sans-serif" font-size="15" font-weight="700">+65.0%</text>
<text x="28" y="175" fill="#e2e8f0" font-family="system-ui,sans-serif" font-size="16">Dan-Axel Zagadou</text>
<rect x="285" y="153" width="295" height="28" rx="7" fill="#22c55e"/>
<text x="590" y="174" fill="#f8fafc" font-family="system-ui,sans-serif" font-size="15" font-weight="700">+40.0%</text>
<text x="28" y="233" fill="#e2e8f0" font-family="system-ui,sans-serif" font-size="16">Nico Schlotterbeck</text>
<rect x="285" y="211" width="240" height="28" rx="7" fill="#22c55e"/>
<text x="535" y="232" fill="#f8fafc" font-family="system-ui,sans-serif" font-size="15" font-weight="700">+32.5%</text>
<text x="28" y="291" fill="#e2e8f0" font-family="system-ui,sans-serif" font-size="16">Johan Bakayoko</text>
<rect x="285" y="269" width="224" height="28" rx="7" fill="#22c55e"/>
<text x="519" y="290" fill="#f8fafc" font-family="system-ui,sans-serif" font-size="15" font-weight="700">+30.3%</text>
<text x="28" y="349" fill="#e2e8f0" font-family="system-ui,sans-serif" font-size="16">Joshua Kimmich</text>
<rect x="285" y="327" width="95" height="28" rx="7" fill="#22c55e"/>
<text x="390" y="348" fill="#f8fafc" font-family="system-ui,sans-serif" font-size="15" font-weight="700">+12.9%</text>
<text x="28" y="407" fill="#e2e8f0" font-family="system-ui,sans-serif" font-size="16">David Raum</text>
<rect x="285" y="385" width="92" height="28" rx="7" fill="#22c55e"/>
<text x="387" y="406" fill="#f8fafc" font-family="system-ui,sans-serif" font-size="15" font-weight="700">+12.4%</text>
</svg>
