<svg xmlns="http://www.w3.org/2000/svg" width="900" height="463" viewBox="0 0 900 463" role="img" aria-labelledby="title desc">
<title id="title">Variação em 7 dias: Investimentos EA FC: Bundesliga em 23/07 — Console (PS)</title>
<desc id="desc">Gráfico gerado a partir da tabela publicada neste artigo.</desc>
<rect width="100%" height="100%" rx="20" fill="#0f172a"/>
<text x="28" y="42" fill="#f8fafc" font-family="system-ui,sans-serif" font-size="23" font-weight="700">Variação em 7 dias</text>
<text x="28" y="70" fill="#94a3b8" font-family="system-ui,sans-serif" font-size="15">Dados do recorte publicado no artigo</text>
<text x="28" y="117" fill="#e2e8f0" font-family="system-ui,sans-serif" font-size="16">Angelo Stiller</text>
<rect x="285" y="95" width="480" height="28" rx="7" fill="#22c55e"/>
<text x="775" y="116" fill="#f8fafc" font-family="system-ui,sans-serif" font-size="15" font-weight="700">+41.1%</text>
<text x="28" y="175" fill="#e2e8f0" font-family="system-ui,sans-serif" font-size="16">Joshua Kimmich</text>
<rect x="285" y="153" width="476" height="28" rx="7" fill="#22c55e"/>
<text x="771" y="174" fill="#f8fafc" font-family="system-ui,sans-serif" font-size="15" font-weight="700">+40.8%</text>
<text x="28" y="233" fill="#e2e8f0" font-family="system-ui,sans-serif" font-size="16">Vladimír Coufal</text>
<rect x="285" y="211" width="321" height="28" rx="7" fill="#22c55e"/>
<text x="616" y="232" fill="#f8fafc" font-family="system-ui,sans-serif" font-size="15" font-weight="700">+27.5%</text>
<text x="28" y="291" fill="#e2e8f0" font-family="system-ui,sans-serif" font-size="16">Deniz Undav</text>
<rect x="285" y="269" width="262" height="28" rx="7" fill="#22c55e"/>
<text x="557" y="290" fill="#f8fafc" font-family="system-ui,sans-serif" font-size="15" font-weight="700">+22.4%</text>
<text x="28" y="349" fill="#e2e8f0" font-family="system-ui,sans-serif" font-size="16">Nikola Vasilj</text>
<rect x="285" y="327" width="179" height="28" rx="7" fill="#22c55e"/>
<text x="474" y="348" fill="#f8fafc" font-family="system-ui,sans-serif" font-size="15" font-weight="700">+15.3%</text>
<text x="28" y="407" fill="#e2e8f0" font-family="system-ui,sans-serif" font-size="16">Daniel Svensson</text>
<rect x="285" y="385" width="175" height="28" rx="7" fill="#22c55e"/>
<text x="470" y="406" fill="#f8fafc" font-family="system-ui,sans-serif" font-size="15" font-weight="700">+15.0%</text>
</svg>
